# xmcd
#
# Track frame offsets:
#	150
#	16928
#	34095
#	50871
#	64930
#	79819
#	95965
#	110746
#	124812
#	141313
#	153447
#	170014
#	186597
#	200948
#	216680
#	232126
#	246466
#	261566
#	277825
#	291935
#	308101
#	322342
#
# Disc length: 4520 seconds
#
# Revision: 0
# Processed by: cddbd v1.5.2PL0 Copyright (c) Steve Scherf et al.
# Submitted via: dBpowerAMP V4.0
#
DISCID=7b11a616
DTITLE=Various Artist - ERG Nu Country Traxx Vol. 243 CAN
DYEAR=2014
DGENRE=Country
TTITLE0=Jason Aldean - Burnin It Down
TTITLE1=Jess Moskaluke - Used
TTITLE2=Blake Shelton - Neon Light
TTITLE3=Montgomery Gentry - Headlights
TTITLE4=Kelleigh Bannen - You Are What You Love
TTITLE5=Madeline Merlo  - Alive
TTITLE6=Tyler Farr - A Guy Walks In To A Bar
TTITLE7=Kira Isabella - Gone Enough
TTITLE8=Maddie and Tae - Girl In A Country Song
TTITLE9=Aaron Pritchett - Boat On The Water
TTITLE10=Jake Owen - What We Ain't Got
TTITLE11=Thomas Rhett - Make Me Wanna
TTITLE12=Jerrod Niemann - Buzz Back Girl
TTITLE13=Chris Young - Lonely Eyes
TTITLE14=Darius Rucker - Homegrown Honey
TTITLE15=Maggie Rose - Girl In Your Truck Song
TTITLE16=Native Run (Show Dog Universal) - Good On You
TTITLE17=Lucy Hale - Lie A Little Better
TTITLE18=Cadillac Three, The - Party Like You
TTITLE19=Jason Blaine - Layin' Your Love On Me
TTITLE20=Orchard, The - Angel Eyes
TTITLE21=Jann Arden ft. Autumn Hill - Karolina
EXTD=
EXTT0=
EXTT1=
EXTT2=
EXTT3=
EXTT4=
EXTT5=
EXTT6=
EXTT7=
EXTT8=
EXTT9=
EXTT10=
EXTT11=
EXTT12=
EXTT13=
EXTT14=
EXTT15=
EXTT16=
EXTT17=
EXTT18=
EXTT19=
EXTT20=
EXTT21=
PLAYORDER=
